# xmcd CD database file
#
# Track frame offsets:
#	150
#	17541
#	34199
#	49008
#	87924
#
# Disc length: 1499 seconds
#
# Revision: 0
# Processed by: cddbd v1.5.1PL0 Copyright (c) Steve Scherf et al.
# Submitted via: CDex 1.51
#
DISCID=3105d905
DTITLE=Passepartout - Demo
DYEAR=2005
DGENRE=Jazz
TTITLE0=Moon
TTITLE1=Melody
TTITLE2=Raanana
TTITLE3=Track 2
TTITLE4=Eucalyptus Grove
EXTD=YEAR: 2005
EXTT0=
EXTT1=
EXTT2=
EXTT3=
EXTT4=
PLAYORDER=
